<svg width="60" height="63" xmlns="http://www.w3.org/2000/svg" xmlns:xlink="http://www.w3.org/1999/xlink" xml:space="preserve" overflow="hidden"><defs><clipPath id="clip0"><rect x="108" y="108" width="60" height="63"/></clipPath></defs><g clip-path="url(#clip0)" transform="translate(-108 -108)"><path d="M62.0571 10.0388C61.3563 13.0198 60.6554 16.0009 59.9544 18.9819 53.6074 8.21182 39.421 4.18616 27.5248 6.56238 18.9861 8.268 10.952 13.6311 7.53618 21.831 7.2504 22.5169 7.83925 23.3264 8.48618 23.5044 9.26941 23.7197 9.87459 23.2382 10.1594 22.5544 12.4313 17.1005 17.4176 13.0146 22.8114 10.8145 29.1939 8.21114 36.4378 7.90087 43.0559 9.76808 49.0382 11.4557 54.8507 15.2606 57.8979 20.7781 56.6437 20.4833 55.3897 20.1884 54.1357 19.8936 52.2386 19.4476 50.3413 19.0014 48.444 18.5554 46.7376 18.1543 46.0134 20.7773 47.7209 21.1788 51.0296 21.9567 54.3384 22.7346 57.6472 23.5126 58.1895 23.64 58.732 23.7676 59.2742 23.8951 60.4362 24.1682 61.6655 23.5853 61.9533 22.3613 62.2929 20.9171 62.6324 19.4729 62.9719 18.0286 63.5414 15.6064 64.1108 13.1842 64.6804 10.762 65.0815 9.05545 62.4585 8.33125 62.0571 10.0388Z" transform="matrix(1 0 0 1.00663 102.912 103.783)"/><path d="M61.7024 47.4513C60.9191 47.2359 60.314 47.7174 60.0291 48.4013 57.7572 53.8552 52.771 57.941 47.377 60.1412 40.9945 62.7446 33.7508 63.0549 27.1325 61.1876 21.1502 59.5 15.3379 55.6951 12.2905 50.1778 13.5445 50.4726 14.7986 50.7673 16.0527 51.0622 17.95 51.5081 19.8472 51.9543 21.7444 52.4002 23.4508 52.8013 24.175 50.1783 22.4675 49.7769 19.1587 48.999 15.85 48.2211 12.5412 47.4434 11.9989 47.3158 11.4566 47.1884 10.9144 47.0609 9.75244 46.7877 8.52304 47.3704 8.23522 48.5946 7.8957 50.0388 7.55618 51.483 7.21666 52.9273 6.64713 55.3495 6.07773 57.7715 5.50819 60.1939 5.10692 61.9003 7.73002 62.6245 8.13143 60.917 8.83237 57.936 9.53316 54.9549 10.2341 51.974 16.5812 62.744 30.7676 66.7696 42.6637 64.3933 51.2023 62.6877 59.2365 57.3245 62.6522 49.1246 62.9382 48.4387 62.3494 47.6292 61.7024 47.4513Z" transform="matrix(1 0 0 1.00663 102.912 103.783)"/><path d="M18.0808 40.9519C18.0808 37.4281 18.0808 33.9042 18.0808 30.3802 18.0808 28.6259 15.3603 28.6259 15.3603 30.3802 15.3603 33.9041 15.3603 37.4279 15.3603 40.9519 15.3603 42.7062 18.0808 42.7062 18.0808 40.9519Z" transform="matrix(1 0 0 1.00663 102.912 103.783)"/><path d="M24.2387 43.3978C24.2387 38.2432 24.2387 33.0889 24.2387 27.9345 24.2387 26.1802 21.5182 26.1802 21.5182 27.9345 21.5182 33.089 21.5182 38.2434 21.5182 43.3978 21.5182 45.1521 24.2387 45.1521 24.2387 43.3978Z" transform="matrix(1 0 0 1.00663 102.912 103.783)"/><path d="M30.1551 48.9466C30.1551 42.2027 30.1551 35.4587 30.1551 28.7147 30.1551 26.605 30.1551 24.4954 30.1551 22.3856 30.1551 20.6313 27.4346 20.6313 27.4346 22.3856 27.4346 29.1296 27.4346 35.8736 27.4346 42.6174 27.4346 44.7271 27.4346 46.8369 27.4346 48.9465 27.4346 50.701 30.1551 50.701 30.1551 48.9466Z" transform="matrix(1 0 0 1.00663 102.912 103.783)"/><path d="M36.5545 48.9466C36.5545 42.2027 36.5545 35.4587 36.5545 28.7147 36.5545 26.605 36.5545 24.4954 36.5545 22.3856 36.5545 20.6313 33.834 20.6313 33.834 22.3856 33.834 29.1296 33.834 35.8736 33.834 42.6174 33.834 44.7271 33.834 46.8369 33.834 48.9465 33.834 50.701 36.5545 50.701 36.5545 48.9466Z" transform="matrix(1 0 0 1.00663 102.912 103.783)"/><path d="M42.9542 48.9466C42.9542 42.2027 42.9542 35.4587 42.9542 28.7147 42.9542 26.605 42.9542 24.4954 42.9542 22.3856 42.9542 20.6313 40.2337 20.6313 40.2337 22.3856 40.2337 29.1296 40.2337 35.8736 40.2337 42.6174 40.2337 44.7271 40.2337 46.8369 40.2337 48.9465 40.2337 50.701 42.9542 50.701 42.9542 48.9466Z" transform="matrix(1 0 0 1.00663 102.912 103.783)"/><path d="M48.8703 43.3978C48.8703 38.2432 48.8703 33.0889 48.8703 27.9345 48.8703 26.1802 46.1498 26.1802 46.1498 27.9345 46.1498 33.089 46.1498 38.2434 46.1498 43.3978 46.1498 45.1521 48.8703 45.1521 48.8703 43.3978Z" transform="matrix(1 0 0 1.00663 102.912 103.783)"/><path d="M55.0284 40.9519C55.0284 37.4281 55.0284 33.9042 55.0284 30.3802 55.0284 28.6259 52.3079 28.6259 52.3079 30.3802 52.3079 33.9041 52.3079 37.4279 52.3079 40.9519 52.3079 42.7062 55.0284 42.7062 55.0284 40.9519Z" transform="matrix(1 0 0 1.00663 102.912 103.783)"/></g></svg>